<svg width="20" height="20" viewBox="0 0 20 20" fill="none" xmlns="http://www.w3.org/2000/svg">
<path d="M1.82423 0.657621C1.34571 0.657621 0.921881 0.944729 0.73959 1.38223C0.561855 1.82429 0.666673 2.32559 1.00847 2.65827L8.35027 10.0001L1.00847 17.3419C0.703132 17.6335 0.580084 18.071 0.689459 18.4766C0.794277 18.8868 1.11329 19.2058 1.52344 19.3106C1.92904 19.42 2.36654 19.2969 2.65821 18.9916L10 11.6498L17.3418 18.9916C17.6335 19.2969 18.071 19.42 18.4766 19.3106C18.8867 19.2058 19.2057 18.8868 19.3106 18.4766C19.4199 18.071 19.2969 17.6335 18.9915 17.3419L11.6497 10.0001L18.9915 2.65827C19.3379 2.32103 19.4382 1.81062 19.2513 1.36856C19.0645 0.921943 18.627 0.639391 18.1439 0.653063C17.8385 0.662178 17.5514 0.789782 17.3418 1.00853L10 8.35033L2.65821 1.00853C2.43946 0.780667 2.13868 0.657621 1.82423 0.653063V0.657621Z" fill="#5E2D00"/>
</svg>
