<svg xmlns="http://www.w3.org/2000/svg" width="512" height="512" viewBox="0 0 512 512">
<title>file-text2</title>
<g id="icomoon-ignore">
</g>
<path d="M458.903 114.538c-11.105-15.146-26.587-32.85-43.589-49.852s-34.706-32.482-49.852-43.589c-25.787-18.91-38.296-21.097-45.462-21.097h-248c-22.056 0-40 17.944-40 40v432c0 22.056 17.943 40 40 40h368c22.056 0 40-17.944 40-40v-312c0-7.166-2.186-19.675-21.097-45.462v0zM392.687 87.313c15.35 15.35 27.4 29.199 36.29 40.687h-76.977v-76.973c11.491 8.89 25.339 20.939 40.687 36.286v0zM448 472c0 4.336-3.664 8-8 8h-368c-4.336 0-8-3.664-8-8v-432c0-4.336 3.664-8 8-8 0 0 247.978-0.001 248 0v112c0 8.836 7.162 16 16 16h112v312z"></path>
<path d="M378.144 195.626c-3.707-3.040-8.582-4.257-13.281-3.316l-160 32c-7.479 1.497-12.863 8.063-12.863 15.69v118.438c-9.416-4.087-20.339-6.438-32-6.438-35.346 0-64 21.49-64 48s28.654 48 64 48 64-21.49 64-48v-114.883l128-25.601v66.921c-9.416-4.087-20.339-6.438-32-6.438-35.346 0-64 21.49-64 48s28.654 48 64 48 64-21.49 64-48v-159.999c0-4.793-2.149-9.334-5.856-12.374z"></path>
</svg>
